<mxfile host="Electron" agent="Mozilla/5.0 (Windows NT 10.0; Win64; x64) AppleWebKit/537.36 (KHTML, like Gecko) draw.io/25.0.2 Chrome/128.0.6613.186 Electron/32.2.5 Safari/537.36" version="25.0.2">
  <diagram name="Страница — 1" id="PuA-NTwAKvXYKONrNDa1">
    <mxGraphModel dx="703" dy="781" grid="1" gridSize="10" guides="1" tooltips="1" connect="1" arrows="1" fold="1" page="1" pageScale="1" pageWidth="827" pageHeight="1169" math="0" shadow="0">
      <root>
        <mxCell id="0" />
        <mxCell id="1" parent="0" />
        <mxCell id="FB4mSReLmeIRXg7k1Y62-1" value="Клиент&lt;div&gt;&lt;br&gt;&lt;/div&gt;" style="shape=umlActor;verticalLabelPosition=bottom;verticalAlign=top;html=1;outlineConnect=0;" parent="1" vertex="1">
          <mxGeometry x="80" y="160" width="30" height="60" as="geometry" />
        </mxCell>
        <mxCell id="FB4mSReLmeIRXg7k1Y62-2" value="Администратор&lt;div&gt;&lt;br&gt;&lt;/div&gt;" style="shape=umlActor;verticalLabelPosition=bottom;verticalAlign=top;html=1;outlineConnect=0;" parent="1" vertex="1">
          <mxGeometry x="90" y="380" width="30" height="60" as="geometry" />
        </mxCell>
        <mxCell id="FB4mSReLmeIRXg7k1Y62-4" value="Оператор&lt;div&gt;&lt;br&gt;&lt;/div&gt;" style="shape=umlActor;verticalLabelPosition=bottom;verticalAlign=top;html=1;outlineConnect=0;" parent="1" vertex="1">
          <mxGeometry x="90" y="710" width="30" height="60" as="geometry" />
        </mxCell>
        <mxCell id="FB4mSReLmeIRXg7k1Y62-12" value="" style="rounded=0;whiteSpace=wrap;html=1;" parent="1" vertex="1">
          <mxGeometry x="160" y="50" width="670" height="970" as="geometry" />
        </mxCell>
        <mxCell id="FB4mSReLmeIRXg7k1Y62-14" value="Поиск фильма" style="ellipse;whiteSpace=wrap;html=1;" parent="1" vertex="1">
          <mxGeometry x="290" y="120" width="110" height="50" as="geometry" />
        </mxCell>
        <mxCell id="FB4mSReLmeIRXg7k1Y62-15" value="Получение&lt;div&gt;уведомлений&lt;/div&gt;" style="ellipse;whiteSpace=wrap;html=1;" parent="1" vertex="1">
          <mxGeometry x="304" y="180" width="110" height="50" as="geometry" />
        </mxCell>
        <mxCell id="FB4mSReLmeIRXg7k1Y62-17" value="Бронирование&lt;div&gt;билета&lt;/div&gt;" style="ellipse;whiteSpace=wrap;html=1;" parent="1" vertex="1">
          <mxGeometry x="230" y="240" width="110" height="50" as="geometry" />
        </mxCell>
        <mxCell id="FB4mSReLmeIRXg7k1Y62-18" value="Выбор места&lt;div&gt;в зале&lt;/div&gt;" style="ellipse;whiteSpace=wrap;html=1;" parent="1" vertex="1">
          <mxGeometry x="390" y="240" width="110" height="50" as="geometry" />
        </mxCell>
        <mxCell id="FB4mSReLmeIRXg7k1Y62-19" value="Создание&lt;div&gt;аккаунта&lt;/div&gt;" style="ellipse;whiteSpace=wrap;html=1;" parent="1" vertex="1">
          <mxGeometry x="260" y="60" width="110" height="50" as="geometry" />
        </mxCell>
        <mxCell id="FB4mSReLmeIRXg7k1Y62-21" value="" style="endArrow=classic;html=1;rounded=0;exitX=1;exitY=0.5;exitDx=0;exitDy=0;entryX=0;entryY=0.5;entryDx=0;entryDy=0;dashed=1;" parent="1" source="FB4mSReLmeIRXg7k1Y62-17" target="FB4mSReLmeIRXg7k1Y62-18" edge="1">
          <mxGeometry width="50" height="50" relative="1" as="geometry">
            <mxPoint x="390" y="150" as="sourcePoint" />
            <mxPoint x="440" y="100" as="targetPoint" />
          </mxGeometry>
        </mxCell>
        <mxCell id="FB4mSReLmeIRXg7k1Y62-27" value="" style="endArrow=none;html=1;rounded=0;entryX=0;entryY=0.5;entryDx=0;entryDy=0;" parent="1" source="FB4mSReLmeIRXg7k1Y62-1" target="FB4mSReLmeIRXg7k1Y62-19" edge="1">
          <mxGeometry width="50" height="50" relative="1" as="geometry">
            <mxPoint x="140" y="230" as="sourcePoint" />
            <mxPoint x="190" y="180" as="targetPoint" />
          </mxGeometry>
        </mxCell>
        <mxCell id="FB4mSReLmeIRXg7k1Y62-28" value="" style="endArrow=none;html=1;rounded=0;entryX=0;entryY=0.5;entryDx=0;entryDy=0;" parent="1" source="FB4mSReLmeIRXg7k1Y62-1" target="FB4mSReLmeIRXg7k1Y62-15" edge="1">
          <mxGeometry width="50" height="50" relative="1" as="geometry">
            <mxPoint x="140" y="230" as="sourcePoint" />
            <mxPoint x="190" y="180" as="targetPoint" />
          </mxGeometry>
        </mxCell>
        <mxCell id="FB4mSReLmeIRXg7k1Y62-29" value="" style="endArrow=none;html=1;rounded=0;entryX=0;entryY=0.5;entryDx=0;entryDy=0;" parent="1" source="FB4mSReLmeIRXg7k1Y62-1" target="FB4mSReLmeIRXg7k1Y62-14" edge="1">
          <mxGeometry width="50" height="50" relative="1" as="geometry">
            <mxPoint x="220" y="270" as="sourcePoint" />
            <mxPoint x="270" y="220" as="targetPoint" />
          </mxGeometry>
        </mxCell>
        <mxCell id="FB4mSReLmeIRXg7k1Y62-33" value="Доступ к панели&lt;div&gt;управления&lt;/div&gt;" style="ellipse;whiteSpace=wrap;html=1;" parent="1" vertex="1">
          <mxGeometry x="304" y="340" width="110" height="50" as="geometry" />
        </mxCell>
        <mxCell id="FB4mSReLmeIRXg7k1Y62-34" value="Назначение&lt;div&gt;ролей работников&lt;/div&gt;" style="ellipse;whiteSpace=wrap;html=1;" parent="1" vertex="1">
          <mxGeometry x="500" y="270" width="110" height="50" as="geometry" />
        </mxCell>
        <mxCell id="FB4mSReLmeIRXg7k1Y62-36" value="" style="endArrow=none;html=1;rounded=0;entryX=0;entryY=0.5;entryDx=0;entryDy=0;" parent="1" source="FB4mSReLmeIRXg7k1Y62-2" target="FB4mSReLmeIRXg7k1Y62-33" edge="1">
          <mxGeometry width="50" height="50" relative="1" as="geometry">
            <mxPoint x="220" y="420" as="sourcePoint" />
            <mxPoint x="270" y="370" as="targetPoint" />
          </mxGeometry>
        </mxCell>
        <mxCell id="FB4mSReLmeIRXg7k1Y62-38" value="" style="endArrow=classic;html=1;rounded=0;exitX=1;exitY=0.5;exitDx=0;exitDy=0;entryX=0;entryY=0.5;entryDx=0;entryDy=0;dashed=1;" parent="1" source="FB4mSReLmeIRXg7k1Y62-33" target="FB4mSReLmeIRXg7k1Y62-34" edge="1">
          <mxGeometry width="50" height="50" relative="1" as="geometry">
            <mxPoint x="450" y="380" as="sourcePoint" />
            <mxPoint x="500" y="330" as="targetPoint" />
          </mxGeometry>
        </mxCell>
        <mxCell id="FB4mSReLmeIRXg7k1Y62-39" value="Управление&lt;div&gt;списком доступных&lt;/div&gt;&lt;div&gt;сеансов&lt;/div&gt;" style="ellipse;whiteSpace=wrap;html=1;" parent="1" vertex="1">
          <mxGeometry x="500" y="370" width="110" height="50" as="geometry" />
        </mxCell>
        <mxCell id="FB4mSReLmeIRXg7k1Y62-40" value="" style="endArrow=classic;html=1;rounded=0;exitX=1;exitY=0.5;exitDx=0;exitDy=0;entryX=0;entryY=0.5;entryDx=0;entryDy=0;dashed=1;" parent="1" source="FB4mSReLmeIRXg7k1Y62-33" target="FB4mSReLmeIRXg7k1Y62-39" edge="1">
          <mxGeometry width="50" height="50" relative="1" as="geometry">
            <mxPoint x="370" y="470" as="sourcePoint" />
            <mxPoint x="420" y="420" as="targetPoint" />
          </mxGeometry>
        </mxCell>
        <mxCell id="FB4mSReLmeIRXg7k1Y62-42" value="Просмотр статистики" style="ellipse;whiteSpace=wrap;html=1;" parent="1" vertex="1">
          <mxGeometry x="320" y="410" width="110" height="50" as="geometry" />
        </mxCell>
        <mxCell id="FB4mSReLmeIRXg7k1Y62-43" value="" style="endArrow=none;html=1;rounded=0;entryX=0;entryY=0.5;entryDx=0;entryDy=0;" parent="1" source="FB4mSReLmeIRXg7k1Y62-2" target="FB4mSReLmeIRXg7k1Y62-42" edge="1">
          <mxGeometry width="50" height="50" relative="1" as="geometry">
            <mxPoint x="260" y="500" as="sourcePoint" />
            <mxPoint x="310" y="450" as="targetPoint" />
          </mxGeometry>
        </mxCell>
        <mxCell id="FB4mSReLmeIRXg7k1Y62-44" value="Просмотр информации местах в зале" style="ellipse;whiteSpace=wrap;html=1;" parent="1" vertex="1">
          <mxGeometry x="300" y="710" width="110" height="50" as="geometry" />
        </mxCell>
        <mxCell id="FB4mSReLmeIRXg7k1Y62-45" value="" style="endArrow=none;html=1;rounded=0;entryX=0;entryY=0.5;entryDx=0;entryDy=0;" parent="1" source="FB4mSReLmeIRXg7k1Y62-4" target="FB4mSReLmeIRXg7k1Y62-44" edge="1">
          <mxGeometry width="50" height="50" relative="1" as="geometry">
            <mxPoint x="280" y="850" as="sourcePoint" />
            <mxPoint x="330" y="800" as="targetPoint" />
          </mxGeometry>
        </mxCell>
        <mxCell id="FB4mSReLmeIRXg7k1Y62-46" value="Обработка покупок и брони билетов" style="ellipse;whiteSpace=wrap;html=1;" parent="1" vertex="1">
          <mxGeometry x="304" y="790" width="110" height="50" as="geometry" />
        </mxCell>
        <mxCell id="FB4mSReLmeIRXg7k1Y62-47" value="" style="endArrow=none;html=1;rounded=0;entryX=0;entryY=0.5;entryDx=0;entryDy=0;" parent="1" source="FB4mSReLmeIRXg7k1Y62-4" target="FB4mSReLmeIRXg7k1Y62-46" edge="1">
          <mxGeometry width="50" height="50" relative="1" as="geometry">
            <mxPoint x="240" y="940" as="sourcePoint" />
            <mxPoint x="290" y="890" as="targetPoint" />
          </mxGeometry>
        </mxCell>
        <mxCell id="FB4mSReLmeIRXg7k1Y62-48" value="Чат с тех.поддержкой" style="ellipse;whiteSpace=wrap;html=1;" parent="1" vertex="1">
          <mxGeometry x="200" y="300" width="110" height="50" as="geometry" />
        </mxCell>
        <mxCell id="FB4mSReLmeIRXg7k1Y62-49" value="" style="endArrow=none;html=1;rounded=0;entryX=0;entryY=0.5;entryDx=0;entryDy=0;" parent="1" source="FB4mSReLmeIRXg7k1Y62-1" target="FB4mSReLmeIRXg7k1Y62-48" edge="1">
          <mxGeometry width="50" height="50" relative="1" as="geometry">
            <mxPoint x="230" y="330" as="sourcePoint" />
            <mxPoint x="280" y="280" as="targetPoint" />
          </mxGeometry>
        </mxCell>
        <mxCell id="FB4mSReLmeIRXg7k1Y62-50" value="Общение с клиентом через чат" style="ellipse;whiteSpace=wrap;html=1;" parent="1" vertex="1">
          <mxGeometry x="470" y="585" width="110" height="50" as="geometry" />
        </mxCell>
        <mxCell id="FB4mSReLmeIRXg7k1Y62-52" value="Доступ к состоянию приложения" style="ellipse;whiteSpace=wrap;html=1;" parent="1" vertex="1">
          <mxGeometry x="300" y="590" width="110" height="50" as="geometry" />
        </mxCell>
        <mxCell id="FB4mSReLmeIRXg7k1Y62-57" value="Доступ к системе уведомлений" style="ellipse;whiteSpace=wrap;html=1;" parent="1" vertex="1">
          <mxGeometry x="320" y="480" width="110" height="50" as="geometry" />
        </mxCell>
        <mxCell id="FB4mSReLmeIRXg7k1Y62-59" value="Рассылка акций и предложений" style="ellipse;whiteSpace=wrap;html=1;" parent="1" vertex="1">
          <mxGeometry x="520" y="460" width="110" height="50" as="geometry" />
        </mxCell>
        <mxCell id="FB4mSReLmeIRXg7k1Y62-60" value="" style="endArrow=classic;html=1;rounded=0;exitX=1;exitY=0.5;exitDx=0;exitDy=0;entryX=0;entryY=0.5;entryDx=0;entryDy=0;dashed=1;" parent="1" source="FB4mSReLmeIRXg7k1Y62-57" target="FB4mSReLmeIRXg7k1Y62-59" edge="1">
          <mxGeometry width="50" height="50" relative="1" as="geometry">
            <mxPoint x="430" y="930" as="sourcePoint" />
            <mxPoint x="480" y="880" as="targetPoint" />
          </mxGeometry>
        </mxCell>
        <mxCell id="Ba_LdWKh69n7oTW9U7gT-4" value="" style="endArrow=none;html=1;rounded=0;entryX=0;entryY=0.5;entryDx=0;entryDy=0;" edge="1" parent="1" source="FB4mSReLmeIRXg7k1Y62-2" target="FB4mSReLmeIRXg7k1Y62-57">
          <mxGeometry width="50" height="50" relative="1" as="geometry">
            <mxPoint x="460" y="650" as="sourcePoint" />
            <mxPoint x="510" y="600" as="targetPoint" />
          </mxGeometry>
        </mxCell>
        <mxCell id="Ba_LdWKh69n7oTW9U7gT-5" value="" style="endArrow=none;html=1;rounded=0;entryX=0;entryY=0.5;entryDx=0;entryDy=0;" edge="1" parent="1" source="FB4mSReLmeIRXg7k1Y62-2" target="FB4mSReLmeIRXg7k1Y62-50">
          <mxGeometry width="50" height="50" relative="1" as="geometry">
            <mxPoint x="460" y="650" as="sourcePoint" />
            <mxPoint x="510" y="600" as="targetPoint" />
          </mxGeometry>
        </mxCell>
        <mxCell id="Ba_LdWKh69n7oTW9U7gT-6" value="" style="endArrow=none;html=1;rounded=0;entryX=0;entryY=0.5;entryDx=0;entryDy=0;" edge="1" parent="1" source="FB4mSReLmeIRXg7k1Y62-2" target="FB4mSReLmeIRXg7k1Y62-52">
          <mxGeometry width="50" height="50" relative="1" as="geometry">
            <mxPoint x="460" y="580" as="sourcePoint" />
            <mxPoint x="510" y="530" as="targetPoint" />
          </mxGeometry>
        </mxCell>
        <mxCell id="Ba_LdWKh69n7oTW9U7gT-7" value="" style="endArrow=none;html=1;rounded=0;entryX=0;entryY=0.5;entryDx=0;entryDy=0;" edge="1" parent="1" source="FB4mSReLmeIRXg7k1Y62-4" target="FB4mSReLmeIRXg7k1Y62-52">
          <mxGeometry width="50" height="50" relative="1" as="geometry">
            <mxPoint x="460" y="580" as="sourcePoint" />
            <mxPoint x="510" y="530" as="targetPoint" />
          </mxGeometry>
        </mxCell>
        <mxCell id="Ba_LdWKh69n7oTW9U7gT-8" value="" style="endArrow=none;html=1;rounded=0;exitX=0.5;exitY=0.5;exitDx=0;exitDy=0;exitPerimeter=0;entryX=0;entryY=0.5;entryDx=0;entryDy=0;" edge="1" parent="1" source="FB4mSReLmeIRXg7k1Y62-4" target="FB4mSReLmeIRXg7k1Y62-50">
          <mxGeometry width="50" height="50" relative="1" as="geometry">
            <mxPoint x="180" y="690" as="sourcePoint" />
            <mxPoint x="230" y="640" as="targetPoint" />
          </mxGeometry>
        </mxCell>
        <mxCell id="Ba_LdWKh69n7oTW9U7gT-14" value="&amp;lt;include&amp;gt;" style="text;html=1;align=center;verticalAlign=middle;whiteSpace=wrap;rounded=0;rotation=0;" vertex="1" parent="1">
          <mxGeometry x="340" y="230" width="60" height="30" as="geometry" />
        </mxCell>
        <mxCell id="Ba_LdWKh69n7oTW9U7gT-15" value="&amp;lt;include&amp;gt;" style="text;html=1;align=center;verticalAlign=middle;whiteSpace=wrap;rounded=0;rotation=-40;" vertex="1" parent="1">
          <mxGeometry x="420" y="310" width="60" height="30" as="geometry" />
        </mxCell>
        <mxCell id="Ba_LdWKh69n7oTW9U7gT-16" value="&amp;lt;include&amp;gt;" style="text;html=1;align=center;verticalAlign=middle;whiteSpace=wrap;rounded=0;rotation=18;" vertex="1" parent="1">
          <mxGeometry x="440" y="360" width="60" height="30" as="geometry" />
        </mxCell>
        <mxCell id="Ba_LdWKh69n7oTW9U7gT-18" value="&amp;lt;include&amp;gt;" style="text;html=1;align=center;verticalAlign=middle;whiteSpace=wrap;rounded=0;rotation=-15;" vertex="1" parent="1">
          <mxGeometry x="440" y="470" width="60" height="30" as="geometry" />
        </mxCell>
        <mxCell id="Ba_LdWKh69n7oTW9U7gT-19" value="" style="endArrow=none;html=1;rounded=0;entryX=0;entryY=0.5;entryDx=0;entryDy=0;" edge="1" parent="1" source="FB4mSReLmeIRXg7k1Y62-1" target="FB4mSReLmeIRXg7k1Y62-17">
          <mxGeometry width="50" height="50" relative="1" as="geometry">
            <mxPoint x="340" y="320" as="sourcePoint" />
            <mxPoint x="390" y="270" as="targetPoint" />
          </mxGeometry>
        </mxCell>
      </root>
    </mxGraphModel>
  </diagram>
</mxfile>
